<svg width="19" height="18" viewBox="0 0 19 18" fill="none" xmlns="http://www.w3.org/2000/svg">
<g id="Group 27">
<path id="Vector" d="M17 8.68756V12.4376H2V2.43756H6.375V1.18756H2C1.66848 1.18756 1.35054 1.31926 1.11612 1.55368C0.881696 1.7881 0.75 2.10604 0.75 2.43756V12.4376C0.75 12.7691 0.881696 13.087 1.11612 13.3214C1.35054 13.5559 1.66848 13.6876 2 13.6876H7V16.1876H4.5V17.4376H14.5V16.1876H12V13.6876H17C17.3315 13.6876 17.6495 13.5559 17.8839 13.3214C18.1183 13.087 18.25 12.7691 18.25 12.4376V8.68756H17ZM10.75 16.1876H8.25V13.6876H10.75V16.1876Z" fill="#010E5D"/>
<path id="Vector_2" d="M10.75 9.93757H10.7437C10.6091 9.93616 10.4785 9.89129 10.3714 9.80964C10.2643 9.72799 10.1864 9.61393 10.1494 9.48444L9.02875 5.56257H6.375V4.31257H9.5C9.63585 4.31249 9.76802 4.35668 9.87651 4.43844C9.985 4.5202 10.0639 4.63508 10.1012 4.76569L10.7725 7.11569L12.6531 1.00319C12.6937 0.87635 12.7732 0.765511 12.8803 0.686415C12.9875 0.607319 13.1168 0.563986 13.25 0.562569C13.3817 0.560589 13.5105 0.601107 13.6173 0.678114C13.7242 0.755121 13.8034 0.864515 13.8431 0.990069L14.95 4.31257H18.25V5.56257H14.5C14.3688 5.5626 14.2409 5.52132 14.1344 5.44459C14.0279 5.36786 13.9483 5.25957 13.9069 5.13507L13.2738 3.23507L11.3475 9.49632C11.3082 9.6241 11.229 9.73591 11.1214 9.81533C11.0139 9.89475 10.8837 9.93759 10.75 9.93757Z" fill="#010E5D"/>
</g>
</svg>
