<svg width="194" height="56" viewBox="0 0 194 56" fill="none" xmlns="http://www.w3.org/2000/svg">
<path d="M40.1661 30.248H25.4253V40.7294H40.1661V30.248Z" fill="white"/>
<path d="M69.1245 31.276C67.7394 29.8944 65.9228 28.5425 63.6747 27.2143L60.5385 25.3956C58.9644 24.4523 57.8564 23.5578 57.2168 22.7155C56.5748 21.8733 56.2562 20.8005 56.2562 19.4961V18.4864C56.2562 17.9696 56.356 17.5099 56.5593 17.1048C56.7602 16.7009 57.0468 16.3789 57.4189 16.1449C57.791 15.9085 58.2344 15.8028 58.7516 15.823C59.3365 15.823 59.8085 15.9477 60.1675 16.1948C60.5289 16.4419 60.8024 16.7959 60.9962 17.2568C61.1852 17.7178 61.3041 18.2737 61.3493 18.9247V21.9932H72.6506L72.615 19.533C72.615 16.8589 72.0978 14.5043 71.0647 12.4693C70.0316 10.4367 68.4848 8.83061 66.4269 7.65096C64.3678 6.47012 61.7642 5.88208 58.6172 5.88208C55.7176 5.88208 53.1865 6.46656 51.0275 7.63433C48.8685 8.80209 47.1934 10.3975 46.0022 12.4194C44.8109 14.4414 44.2022 16.8125 44.1796 19.5318V20.3051C44.1796 23.6326 44.9393 26.3685 46.4575 28.5128C47.9745 30.6594 50.1406 32.5305 52.9511 34.1259L56.054 36.0801C57.9432 37.2039 59.2366 38.2149 59.9333 39.113C60.6288 40.0135 60.9771 41.1254 60.9771 42.4512V43.5298C60.9771 44.0466 60.882 44.4968 60.6906 44.8782C60.4992 45.2595 60.2032 45.5589 59.7978 45.7727C59.3924 45.9865 58.8966 46.0923 58.3129 46.0923C57.7292 46.0923 57.1942 45.9735 56.7769 45.7371C56.362 45.503 56.0291 45.1538 55.783 44.694C55.5357 44.2331 55.4014 43.6653 55.3788 42.9905V39.922H43.9775L44.0108 42.4832C44.056 45.2488 44.629 47.6426 45.7323 49.6621C46.8332 51.684 48.4512 53.2462 50.59 54.3486C52.7264 55.4498 55.3895 55.9999 58.584 55.9999C61.5526 55.9999 64.1265 55.4213 66.308 54.2631C68.4872 53.1072 70.1695 51.5058 71.35 49.4613C72.5317 47.4156 73.1202 45.0243 73.1202 42.2825V41.4046C73.1202 39.2924 72.8004 37.4213 72.1596 35.7938C71.5176 34.1651 70.5071 32.66 69.1245 31.276Z" fill="white"/>
<path d="M76.0894 55.2598H99.9737V45.1146H88.2669V35.4755H99.434V26.2046H88.2669V16.7662H99.9737V6.62103H76.0894V55.2598Z" fill="white"/>
<path d="M124.459 35.2592L116.195 6.62091H103.512V55.2597H113.801L113.666 26.3399H113.678L122.164 55.2597H134.647V6.62091H124.392L124.459 35.2592Z" fill="white"/>
<path d="M162.796 31.276C161.413 29.8944 159.596 28.5425 157.346 27.2143L154.21 25.3956C152.637 24.4523 151.528 23.5578 150.888 22.7155C150.246 21.8733 149.927 20.8005 149.927 19.4961V18.4864C149.927 17.9696 150.027 17.5099 150.231 17.1048C150.431 16.7009 150.72 16.3789 151.09 16.1449C151.462 15.9085 151.906 15.8028 152.423 15.823C153.008 15.823 153.48 15.9477 153.841 16.1948C154.2 16.4419 154.476 16.7959 154.667 17.2568C154.859 17.7178 154.974 18.2737 155.02 18.9247V21.9932H166.322L166.289 19.533C166.289 16.8589 165.769 14.5043 164.736 12.4693C163.702 10.4367 162.156 8.83061 160.098 7.65096C158.041 6.47012 155.438 5.88208 152.288 5.88208C149.389 5.88208 146.858 6.46656 144.699 7.63433C142.54 8.80209 140.865 10.3975 139.673 12.4194C138.482 14.4414 137.873 16.8125 137.851 19.5318V20.3051C137.851 23.6326 138.611 26.3685 140.128 28.5128C141.645 30.6594 143.811 32.5305 146.621 34.1259L149.724 36.0801C151.613 37.2039 152.907 38.2149 153.603 39.113C154.299 40.0135 154.647 41.1254 154.647 42.4512V43.5298C154.647 44.0466 154.552 44.4968 154.361 44.8782C154.169 45.2595 153.873 45.5589 153.468 45.7727C153.064 45.9865 152.567 46.0923 151.984 46.0923C151.402 46.0923 150.865 45.9735 150.45 45.7371C150.033 45.503 149.702 45.1538 149.454 44.694C149.207 44.2331 149.073 43.6653 149.049 42.9905V39.922H137.648L137.681 42.4832C137.726 45.2488 138.299 47.6426 139.402 49.6621C140.504 51.684 142.124 53.2462 144.26 54.3486C146.396 55.4498 149.062 55.9999 152.254 55.9999C155.223 55.9999 157.797 55.4213 159.978 54.2631C162.16 53.1072 163.84 51.5058 165.02 49.4613C166.202 47.4156 166.79 45.0243 166.79 42.2825V41.4046C166.79 39.2924 166.47 37.4213 165.83 35.7938C165.188 34.1651 164.177 32.66 162.794 31.276H162.796Z" fill="white"/>
<path d="M193.646 16.7661V6.62091H169.762V55.2597H193.646V45.1145H181.939V35.4754H193.106V26.2045H181.939V16.7661H193.646Z" fill="white"/>
<path d="M20.8012 7.95369C20.5397 7.82896 20.2698 7.71491 19.994 7.60681C19.6968 7.49039 19.39 7.38466 19.075 7.28725C17.6947 6.86195 16.1623 6.62555 14.5537 6.62555C12.9452 6.62555 11.4104 6.86195 10.0301 7.28725C9.71622 7.38466 9.40949 7.49039 9.11109 7.60681C8.94702 7.67096 8.78534 7.73748 8.62484 7.80757C5.52784 9.15829 3.47229 11.533 3.47229 14.2416C3.47229 16.9501 5.52784 19.3237 8.62484 20.6756V55.2608H20.8024V20.533C23.7187 19.1598 25.6316 16.8551 25.6316 14.244C25.6316 11.6328 23.7199 9.32579 20.8024 7.95488L20.8012 7.95369Z" fill="white"/>
<path d="M29.428 10.1143C29.428 10.8212 29.3222 11.5078 29.1225 12.1754C28.2499 9.28037 25.5773 6.83554 21.9429 5.42424C21.5482 5.26862 21.1393 5.12844 20.7208 5.00132C18.8875 4.43467 16.8546 4.12223 14.7158 4.12223C12.577 4.12223 10.5441 4.43704 8.70845 5.00132C8.29235 5.12962 7.88576 5.2698 7.48868 5.42424C3.85431 6.83435 1.17817 9.2768 0.305539 12.1754C0.105809 11.5102 0 10.8212 0 10.1143C0 6.33303 3.01853 3.03881 7.48868 1.30201C7.88576 1.14638 8.29235 1.0062 8.70845 0.879093C10.5429 0.31481 12.5758 0 14.7146 0C16.8534 0 18.8863 0.312434 20.7196 0.879093C21.1381 1.00739 21.547 1.14757 21.9417 1.30201C26.4119 3.03762 29.4268 6.33422 29.4268 10.1143H29.428Z" fill="white"/>
</svg>
