<svg width="13" height="18" viewBox="0 0 13 18" fill="none" xmlns="http://www.w3.org/2000/svg">
<path id="Vector" d="M7.96508 1.13765L6.69582 7.80639L11.294 7.82186L5.03504 16.8623L6.30432 9.52565L1.70644 9.50962L7.96508 1.13765ZM7.96594 0.0126694C7.93557 0.0126694 7.90521 0.0137769 7.8754 0.0160093C7.67684 0.0320581 7.54519 0.0984331 7.38912 0.203339C7.30123 0.261934 7.22199 0.332559 7.15371 0.413152C7.1332 0.43734 7.11386 0.462494 7.09575 0.488527L0.792099 8.83124C0.543192 9.1724 0.50663 9.6227 0.69788 9.99901C0.888849 10.3753 1.275 10.6138 1.69829 10.6169L4.9456 10.6405L3.92466 16.6556C3.82763 17.1726 4.10325 17.6878 4.58841 17.8954C4.7294 17.956 4.88128 17.9872 5.03474 17.9871C5.38827 17.9871 5.6788 17.8217 5.89679 17.523L12.2083 8.48249C12.4572 8.14132 12.4935 7.69048 12.3025 7.31473C12.1116 6.93842 11.7254 6.6999 11.3021 6.69682L8.05482 6.6912L9.06479 1.40229C9.08619 1.3157 9.09696 1.22683 9.09687 1.13763C9.09687 0.529009 8.61225 0.0328843 8.00588 0.0131968C7.9924 0.0126343 7.97916 0.0126343 7.96596 0.0126343L7.96594 0.0126694Z" fill="#010E5D"/>
</svg>
